<?xml version="1.0" standalone="no"?>
<!DOCTYPE svg PUBLIC "-//W3C//DTD SVG 1.1//EN" "http://www.w3.org/Graphics/SVG/1.1/DTD/svg11.dtd" >
<svg xmlns="http://www.w3.org/2000/svg">
<metadata>Generated by IcoMoon</metadata>
<defs>
<font id="icomoon" horiz-adv-x="1024">
<font-face units-per-em="1024" ascent="960" descent="-64" />
<missing-glyph horiz-adv-x="1024" />
<glyph unicode="&#x20;" horiz-adv-x="512" d="" />
<glyph unicode="&#xe900;" glyph-name="icon_gallery" d="M755.277 810.465h-290.852c-0.002 0-0.004 0-0.006 0-58.804 0-107.648-42.643-117.295-98.693-0.335-2.007-0.468-3.503-0.468-5.031 0-14.148 11.469-25.617 25.617-25.617 12.62 0 23.109 9.126 25.227 21.139 5.512 32.568 33.364 56.951 66.917 56.986h290.856c37.621-0.023 68.114-30.508 68.152-68.123v-290.881c-0.184-29.76-19.449-54.972-46.169-64.033-10.875-3.555-18.249-13.174-18.249-24.514 0-14.138 11.462-25.6 25.6-25.6 3.067 0 6.007 0.539 8.732 1.528 47.423 16.2 81.079 60.454 81.271 112.596v290.921c-0.087 65.868-53.463 119.24-119.324 119.322zM396.025 446.096c19.869-34.414 8.078-78.418-26.335-98.288s-78.418-8.078-98.288 26.335c-19.869 34.414-8.078 78.418 26.335 98.288s78.418 8.078 98.288-26.335zM543.273 599.194h-258.299c-74.857-0.105-135.511-60.769-135.598-135.62v-258.261c0.090-74.858 60.743-135.519 135.588-135.624h258.309c74.858 0.102 135.513 60.764 135.603 135.615v258.261c-0.087 74.862-60.744 135.527-135.593 135.629zM627.676 205.312c-0.143-3.741-0.51-7.269-1.091-10.725l-114.958 115.485-189.21-189.204h-37.443c-46.609 0.047-84.378 37.831-84.398 84.442v258.255c0.029 46.606 37.794 84.382 84.394 84.429h258.303c46.606-0.044 84.374-37.821 84.403-84.426v-258.256z" />
<glyph unicode="&#xe901;" glyph-name="icon_audio" d="M285.389 553.318h-121.344v-220.518h122.778l194.611-143.667v508.979l-196.045-144.794zM612.429 191.933c-13.856 0-25.088 11.232-25.088 25.088s11.232 25.088 25.088 25.088c110.235 0 199.598 89.363 199.598 199.598s-89.363 199.598-199.598 199.598c-13.856 0-25.088 11.232-25.088 25.088s11.232 25.088 25.088 25.088c136.575-1.805 246.596-112.941 246.596-249.774s-110.021-247.969-246.426-249.772zM612.429 341.504c-13.856 0-25.088 11.232-25.088 25.088s11.232 25.088 25.088 25.088c0 0 0 0 0 0 27.634 0 50.035 22.402 50.035 50.035s-22.402 50.035-50.035 50.035c0 0 0 0 0 0-13.856 0-25.088 11.232-25.088 25.088s11.232 25.088 25.088 25.088c54.534-1.064 98.334-45.523 98.334-100.211s-43.8-99.147-98.235-100.21z" />
<glyph unicode="&#xe902;" glyph-name="icon_video" d="M750.336 440.064l-476.672-275.2v550.4l476.672-275.2z" />
<glyph unicode="&#xe903;" glyph-name="icon_live" d="M536.508 682.906c122.665-13.536 211.131-123.948 197.595-246.613s-123.948-211.131-246.613-197.595c-122.665 13.536-211.131 123.948-197.595 246.613s123.948 211.131 246.613 197.595z" />
<glyph unicode="&#xe904;" glyph-name="icon_logo_rte" d="M828.611 306.273c-0.172-0.001-0.375-0.001-0.578-0.001-60.518 0-110.585 44.742-118.929 102.952l113.522 0.643c12.549 0 39.936-2.668 39.936-2.668v50.319s-26.839-1.992-41.851-1.992h-111.688c9.987 57.448 59.468 100.573 119.022 100.573 0.197 0 0.394 0 0.591-0.001 25.42-1.435 49.233-6.571 71.497-14.884l-0.948 53.468c-19.86 6.625-42.725 10.448-66.483 10.448-1.44 0-2.877-0.014-4.311-0.042-1.373 0.053-3.241 0.081-5.115 0.081-97.646 0-177.356-76.799-182.020-173.289 1.522-98.206 81.154-176.887 179.163-176.887 2.88 0 5.743 0.068 8.59 0.202 1.159-0.059 2.996-0.084 4.84-0.084 25.064 0 49.048 4.628 71.142 13.077l-2.718 54.279c-21.667-9.678-46.9-15.577-73.439-16.19zM488.566 256.512c2.138 14.075 3.509 30.548 3.795 47.286l0.004 241.743h-16.348c-22.252 0-56.648 0-82.068-2.478l-2.196 56.069h265.144l-1.26-56.069c-26.23 2.478-60.022 2.478-82.944 2.478h-20.127v-241.413c0.341-17.080 1.942-33.519 4.717-49.555l-68.717 1.939zM899.697 627.169c-19.862 5.594-42.713 8.94-66.303 9.215-1.849 0.049-3.836 0.075-5.83 0.075-55.589 0-106.309-20.845-144.771-55.144l0.855 41.364c40.513 27.433 90.471 43.795 144.249 43.795 1.88 0 3.755-0.020 5.626-0.060 23.606-0.050 46.695-3.361 68.599-9.506zM234.496 432.804h-49.464v124.616s24.064 0.66 52.726 0.66c4.296 0 8.453-0.338 12.206-0.512 1.595 0.151 3.448 0.238 5.321 0.238 32.813 0 59.443-26.47 59.702-59.221-1.822-35.139-29.89-63.14-64.866-64.848-4.572-0.588-9.676-0.92-14.858-0.92-0.27 0-0.54 0.001-0.809 0.003zM369.828 303.468l-92.124 88.75c55.696 2.115 100.528 45.855 104.362 100.892 0.019 57.88-33.179 108.824-132.108 112.925-4.096 0.22-8.376 0.338-12.836 0.338-68.439 0-115.425-3.272-115.425-3.272s3.113-33.792 3.113-50.775v-248.868c-0.263-16.775-1.865-32.984-4.705-48.762l69.391 1.817c-2.735 15.416-4.344 33.212-4.434 51.368v101.31l64.927-67.948 32.85-33.976c17.257-17.701 35.37-34.297 54.382-49.835l92.486-0.919c-22.497 15.743-42.023 31.154-60.635 47.578z" />
<glyph unicode="&#xe905;" glyph-name="icon_signpost" d="M512 816.271c-0.133 0-0.291 0-0.448 0-196.073 0-355.021-158.948-355.021-355.021 0-106.607 46.988-202.239 121.384-267.315l33.893 33.182 267.336 267.336v-124.483c0.196-12.939 10.731-23.352 23.698-23.352s23.502 10.413 23.698 23.334v181.707l-0.143 0.753 0.143 0.727c0 0.005 0 0.010 0 0.015 0 13.081-10.604 23.685-23.685 23.685-0.005 0-0.011 0-0.016 0h-181.698c-12.939-0.196-23.352-10.731-23.352-23.698s10.413-23.502 23.334-23.698h125.97l-268.518-268.534c-45.558 53.286-73.282 123.007-73.282 199.203 0 169.766 137.623 307.389 307.389 307.389s307.389-137.623 307.389-307.389c0-169.766-137.623-307.389-307.389-307.389-0.24 0-0.479 0-0.719 0.001-5.917 0-11.739 0.553-17.596 0.891l0.046-47.396c5.868-0.292 11.653-0.891 17.587-0.891 0 0 0 0 0 0 196.321 0 355.471 159.15 355.471 355.471s-159.15 355.471-355.471 355.471c0 0 0 0 0 0z" />
<glyph unicode="&#xe906;" glyph-name="icon_arrow_left" d="M656.205 719.406c14.646-0.006 26.516-11.88 26.516-26.527 0-7.321-2.966-13.95-7.762-18.75l-231.828-231.828c-4.8-4.8-11.43-7.768-18.755-7.768-14.648 0-26.523 11.875-26.523 26.523 0 7.324 2.969 13.955 7.768 18.755l231.818 231.823c4.787 4.801 11.409 7.772 18.724 7.772 0.014 0 0.029 0 0.043 0zM424.376 487.086c0.009 0 0.020 0 0.031 0 7.315 0 13.936-2.971 18.723-7.772l231.829-231.844c4.8-4.8 7.768-11.43 7.768-18.755 0-14.648-11.875-26.523-26.523-26.523-7.324 0-13.955 2.969-18.755 7.768l-231.828 231.844c-4.799 4.8-7.767 11.431-7.767 18.755 0 14.648 11.873 26.524 26.521 26.527z" />
<glyph unicode="&#xe907;" glyph-name="icon_arrow_right" d="M424.376 202.194c-14.646 0.006-26.516 11.88-26.516 26.527 0 7.321 2.966 13.95 7.762 18.75l231.818 231.828c4.8 4.8 11.43 7.768 18.755 7.768 14.648 0 26.523-11.875 26.523-26.523 0-7.324-2.969-13.955-7.768-18.755l-231.818-231.823c-4.787-4.801-11.409-7.772-18.724-7.772-0.011 0-0.022 0-0.032 0zM656.205 434.514c-0.009 0-0.020 0-0.031 0-7.315 0-13.936 2.971-18.723 7.772l-231.829 231.844c-4.8 4.8-7.768 11.43-7.768 18.755 0 14.648 11.875 26.523 26.523 26.523 7.324 0 13.955-2.969 18.755-7.768l231.828-231.844c4.799-4.8 7.767-11.431 7.767-18.755 0-14.648-11.873-26.524-26.521-26.527z" />
<glyph unicode="&#xe908;" glyph-name="icon_login" d="M665.088 607.677c0-106.388-68.547-192.635-153.088-192.635s-153.088 86.241-153.088 192.635c-0.365 3.974-0.573 8.594-0.573 13.263 0 84.865 68.797 153.661 153.661 153.661s153.661-68.797 153.661-153.661c0-4.669-0.208-9.289-0.616-13.852zM664.74 369.044c-30.075-55.413-86.713-93.044-152.369-95.829-66.396 2.781-123.033 40.411-152.63 94.868-82.8-32.483-137.768-87.948-137.768-133.096 0-69.504 129.853-87.828 290.028-87.828s290.038 18.324 290.038 87.828c-0.005 45.153-54.973 100.623-137.298 134.057z" />
<glyph unicode="&#xe909;" glyph-name="icon_menu" d="M232.934 641.183h558.131c15.161 0 27.451 12.29 27.451 27.451s-12.29 27.451-27.451 27.451h-558.131c-15.161 0-27.451-12.29-27.451-27.451s12.29-27.451 27.451-27.451zM791.066 488.248h-558.131c-15.161 0-27.451-12.29-27.451-27.451s12.29-27.451 27.451-27.451h558.131c15.161 0 27.451 12.29 27.451 27.451s-12.29 27.451-27.451 27.451zM791.066 280.417h-558.131c-15.161 0-27.451-12.29-27.451-27.451s12.29-27.451 27.451-27.451h558.131c15.161 0 27.451 12.29 27.451 27.451s-12.29 27.451-27.451 27.451z" />
<glyph unicode="&#xe90a;" glyph-name="icon_quote_close" d="M610.156 420.746c-39.981 25.1-66.169 68.951-66.169 118.919 0 1.492 0.023 2.979 0.070 4.459-0.148 2.367-0.229 5.391-0.229 8.433 0 45.335 18.054 86.452 47.364 116.556 29.147 28.506 69.123 46.117 113.213 46.117 1.727 0 3.447-0.027 5.161-0.081 1.349 0.061 3.229 0.093 5.117 0.093 43.591 0 83.262-16.787 112.9-44.248 28.944-27.197 47.040-65.864 47.040-108.757 0-1.871-0.034-3.734-0.103-5.588-0.877-51.471-17.228-99.221-44.603-138.757l-145.633-211.454h-164.265zM239.642 420.746c-39.981 25.1-66.169 68.951-66.169 118.919 0 1.492 0.023 2.979 0.070 4.459-0.147 2.355-0.227 5.364-0.227 8.392 0 45.347 18.052 86.478 47.362 116.598 29.146 28.505 69.123 46.117 113.213 46.117 1.727 0 3.447-0.027 5.161-0.081 1.354 0.062 3.241 0.094 5.134 0.094 43.586 0 83.251-16.787 112.882-44.248 28.945-27.197 47.040-65.864 47.040-108.757 0-1.871-0.034-3.734-0.103-5.588-0.879-51.466-17.217-99.215-44.573-138.76l-145.694-211.441h-164.234z" />
<glyph unicode="&#xe90b;" glyph-name="icon_quote_open" d="M413.844 500.854c39.981-25.1 66.169-68.951 66.169-118.919 0-1.492-0.023-2.979-0.070-4.459 0.148-2.367 0.229-5.391 0.229-8.433 0-45.335-18.054-86.452-47.364-116.556-29.147-28.506-69.123-46.117-113.213-46.117-1.727 0-3.447 0.027-5.161 0.081-1.349-0.061-3.229-0.093-5.117-0.093-43.591 0-83.262 16.787-112.9 44.248-28.944 27.197-47.040 65.864-47.040 108.757 0 1.871 0.034 3.734 0.103 5.588 0.877 51.471 17.228 99.221 44.603 138.757l145.664 211.444h164.234zM784.358 500.854c39.981-25.1 66.169-68.951 66.169-118.919 0-1.492-0.023-2.979-0.070-4.459 0.147-2.355 0.227-5.364 0.227-8.392 0-45.347-18.052-86.478-47.362-116.598-29.146-28.505-69.123-46.117-113.213-46.117-1.727 0-3.447 0.027-5.161 0.081-1.354-0.062-3.241-0.094-5.134-0.094-43.586 0-83.251 16.787-112.882 44.248-28.945 27.197-47.040 65.864-47.040 108.757 0 1.871 0.034 3.734 0.103 5.588 0.879 51.466 17.217 99.215 44.573 138.76l145.663 211.452h164.265z" />
<glyph unicode="&#xe90c;" glyph-name="icon_search" d="M445.527 319.488c-127.963 0.006-231.695 103.742-231.695 231.706 0 127.967 103.738 231.706 231.706 231.706 127.958 0 231.691-103.724 231.706-231.679-0.117-127.931-103.788-231.607-231.704-231.733zM445.527 719.386c-92.885-0.006-168.182-75.306-168.182-168.192 0-92.89 75.302-168.192 168.192-168.192s168.192 75.302 168.192 168.192c0 0.009 0 0.018 0 0.027-0.108 92.848-75.352 168.086-168.193 168.185zM778.399 138.685c-0.011 0-0.024 0-0.038 0-8.757 0-16.683 3.556-22.413 9.302l-204.642 204.657c-5.746 5.746-9.3 13.683-9.3 22.451 0 17.535 14.215 31.751 31.751 31.751 8.768 0 16.705-3.554 22.451-9.3l204.641-204.657c5.754-5.746 9.313-13.688 9.313-22.461 0-17.532-14.212-31.744-31.744-31.744-0.007 0-0.014 0-0.021 0z" />
<glyph unicode="&#xe90d;" glyph-name="icon_breaking" d="M805.683 558.49h-239.821l99.174 272.538h-276.429l-170.291-467.917h239.821l-99.174-272.538 446.72 467.917z" />
<glyph unicode="&#xe90e;" glyph-name="icon_email" d="M705.024 663.552h-374.272l181.76-198.144 192.512 198.144zM778.752 633.856l-267.264-285.184-266.24 285.184v-375.808h533.504v375.808z" />
<glyph unicode="&#xe90f;" glyph-name="icon_recipe" d="M700.928 791.552h-66.048v-292.864c-1.659-10.368-10.539-18.196-21.248-18.196s-19.589 7.827-21.232 18.073l-0.016 292.987h-59.392v-292.864c-1.659-10.368-10.539-18.196-21.248-18.196s-19.589 7.827-21.232 18.073l-0.016 292.987h-58.88v-292.864c-1.659-10.368-10.539-18.196-21.248-18.196s-19.589 7.827-21.232 18.073l-0.016 292.987h-64c0-88.064 0-183.808 0-300.544s59.904-179.712 140.8-197.12v-163.328h92.16v162.816c81.92 16.896 142.848 80.896 142.848 197.632s0 216.064 0 300.544z" />
<glyph unicode="&#xe910;" glyph-name="icon_facebook" d="M468.992 519.168v35.84c-0.001 0.162-0.001 0.353-0.001 0.544 0 13.054 2.443 25.537 6.896 37.018 4.267 10.777 10.502 20.63 18.255 29.065 7.492 8.103 16.49 14.809 26.546 19.67 10.099 4.758 21.32 7.401 33.158 7.401 0.229 0 0.457-0.001 0.685-0.003h59.869v-70.656h-59.392c-4.26-0.439-7.838-2.996-9.696-6.587-2.926-4.266-4.655-9.462-4.655-15.061 0-0.309 0.005-0.617 0.016-0.924l-0.001-36.307h73.728v-71.68h-71.68v-174.592h-73.728v174.592h-59.392v71.68h59.392z" />
<glyph unicode="&#xe911;" glyph-name="icon_twitter" d="M761.344 614.4c-14.578-19.724-31.476-36.622-50.553-50.742l-0.647-13.77c-0.312-36.86-7.233-72.011-19.634-104.454-12.717-34.276-31.642-65.556-55.396-92.474-24.718-27.897-54.813-50.955-88.656-67.54-37.715-18.835-80.191-29.424-125.14-29.424-0.52 0-1.039 0.001-1.558 0.004-0.365-0.003-0.892-0.004-1.419-0.004-29.069 0-57.088 4.494-83.4 12.826-26.334 8.362-50.929 20.012-73.521 34.512l13.012-0.742h12.8c1.125-0.023 2.45-0.037 3.779-0.037 46.673 0 89.508 16.435 123.033 43.833-44.818 0.753-82.197 29.977-95.375 70.168 2.561 0.373 5.763 0.173 9.011 0.173s6.449 0.2 9.592 0.589l13.448-0.038h13.312c-23.295 5.909-42.881 19.174-56.652 37.132-14.823 17.174-23.744 39.406-23.744 63.722 0 0.544 0.004 1.086 0.013 1.628l-0.001-0.082c5.708-2.785 12.505-5.4 19.543-7.447 8.477-2.511 17.143-3.822 26.115-3.822 0.329 0 0.657 0.002 0.984 0.005-14.359 8.79-25.835 20.921-33.599 35.346-7.696 14.342-12.076 30.799-12.076 48.278 0 1.201 0.021 2.397 0.062 3.588 0.206 18.685 5.309 36.307 14.092 51.54 24.467-32.375 54.981-58.476 89.871-77.583 35.802-19.108 76.3-30.49 119.312-31.974 0.047 3.292-0.192 7.116-0.192 10.995s0.238 7.703 0.701 11.458c-0.046-0.274-0.047-0.066-0.047 0.142 0 28.385 11.549 54.072 30.205 72.62 9.063 9.042 19.751 16.451 31.589 21.752 11.358 5.998 23.881 9.84 37.172 10.995 0.859 0.035 1.443 0.040 2.029 0.040 14.439 0 28.128-3.213 40.39-8.964 12.275-5.953 23.272-13.842 32.693-23.302 12.726 1.371 24.345 4.077 35.381 8.009 11.499 4.775 21.604 9.585 31.412 14.873-10.651-24.279-26.332-43.429-46.379-56.41 11.042 0.975 21.462 3.137 31.493 6.194 10.009 2.395 19.406 5.38 28.522 8.925z" />
<glyph unicode="&#xe912;" glyph-name="icon_comments" d="M662.528 730.112h-279.552c0 0-0.001 0-0.001 0-77.479 0-140.288-62.809-140.288-140.288 0-0.18 0-0.36 0.001-0.54v-145.892c0-0.028 0-0.060 0-0.093 0-63.99 42.843-117.974 101.41-134.831l0.99-144.628 123.904 138.752h192c77.479 0 140.288 62.809 140.288 140.288v146.432c0.001 0.155 0.001 0.337 0.001 0.52 0 76.939-61.937 139.412-138.671 140.279z" />
<glyph unicode="&#xe913;" glyph-name="icon_youtube" d="M431.821 438.374v-22.118h-27.648v-135.168h-25.293v135.168h-27.546v22.118h80.486zM424.96 574.157h1.331l19.149 69.427h29.338l-34.458-101.376v-71.68h-29.44v67.994l-34.355 105.062h28.877zM484.659 281.088v13.517c-3.3-4.7-7.642-8.452-12.706-10.971-4.080-2.346-8.731-3.706-13.693-3.775-0.484-0.050-1.023-0.078-1.568-0.078-4.182 0-7.973 1.671-10.743 4.382-2.704 4.308-4.309 9.548-4.309 15.163 0 0.284 0.004 0.568 0.012 0.85l-0.001 97.239h23.347v-88.678c-0.003-0.098-0.005-0.212-0.005-0.328 0-1.313 0.227-2.574 0.643-3.744 0.332-0.735 0.554-1.681 0.59-2.673 1.274-0.825 2.827-1.306 4.492-1.306 0.366 0 0.726 0.023 1.080 0.068-0.011-0.005 0.024-0.005 0.061-0.005 0.837 0 1.649 0.112 2.419 0.323 1.58 0.585 2.999 1.31 4.312 2.183 2.29 1.512 4.315 3.342 6.031 5.435l0.038 88.521h23.347v-116.122h-23.347zM477.286 568.627c-0.009 0.285-0.014 0.62-0.014 0.956 0 9.226 3.743 17.578 9.793 23.62 3.708 2.635 7.982 4.824 12.559 6.352 4.841 1.47 10.010 2.259 15.363 2.259 0.354 0 0.707-0.003 1.059-0.010 0.46 0.027 1.061 0.042 1.665 0.042 9.582 0 18.285-3.76 24.716-9.885 3.183-2.724 5.709-6.154 7.343-10.049 1.618-4 2.52-8.434 2.524-13.078v-66.561c0.068-0.769 0.107-1.663 0.107-2.567 0-8.941-3.82-16.99-9.916-22.604-7.354-6.502-17.050-10.459-27.67-10.459s-20.316 3.958-27.693 10.479c-6.081 5.922-9.881 14.245-9.881 23.455 0 0.597 0.016 1.19 0.047 1.779l-0.004 66.478zM514.714 488.755c3.172 0.096 5.999 1.495 7.979 3.677 1.905 1.869 3.081 4.459 3.081 7.322 0 0.021 0 0.042 0 0.063v70.038c0.032 0.253 0.050 0.545 0.050 0.842 0 2.447-1.226 4.608-3.098 5.901-2.207 1.77-4.961 2.897-7.97 3.086-0.423 0.062-0.864 0.096-1.313 0.096-2.696 0-5.106-1.226-6.703-3.151-1.907-1.323-3.133-3.484-3.133-5.931 0-0.297 0.018-0.589 0.053-0.876l-0.003-70.007c0.059-2.774 0.972-5.324 2.484-7.411 1.741-2.249 4.485-3.707 7.569-3.707 0.373 0 0.74 0.021 1.102 0.063zM570.010 398.438c0.141 0.003 0.307 0.005 0.474 0.005 6.309 0 12.014-2.588 16.111-6.76 1.539-2.723 2.896-5.878 3.907-9.185 1.039-3.835 1.585-7.845 1.585-11.983 0-0.335-0.004-0.67-0.011-1.004l0.001-63.848c0.007-0.274 0.011-0.596 0.011-0.919 0-3.723-0.547-7.319-1.564-10.711-0.896-2.673-2.254-5.221-3.973-7.481-3.235-4.099-8.278-6.747-13.94-6.747-0.483 0-0.962 0.019-1.435 0.057-4.374 0.017-8.595 0.919-12.441 2.534-1.742 0.857-3.421 1.881-4.985 3.049-1.817 1.316-3.488 2.727-5.048 4.251l0.009-8.61h-22.886v157.286h23.347v-49.766c1.554 1.505 3.224 2.916 4.987 4.208 1.617 1.204 3.296 2.227 5.070 3.085 1.605 1.189 3.346 1.955 5.246 2.224 1.705 0.193 3.627 0.304 5.573 0.314zM549.12 303.206c1.476-1.817 3.325-3.272 5.435-4.261 0.994-0.054 1.838-0.28 2.583-0.669 0.808-0.376 1.79-0.603 2.825-0.603 0.076 0 0.151 0.001 0.227 0.004 0.113-0.009 0.257-0.014 0.402-0.014 1.213 0 2.344 0.348 3.299 0.95l3.098 2.135c0.429 1.844 0.675 3.961 0.675 6.135 0 0.652-0.022 1.298-0.066 1.938l0.005 59.51c0.050 0.478 0.079 1.032 0.079 1.593 0 2.793-0.712 5.419-1.964 7.707-1.289 1.809-3.464 3.032-5.924 3.032-0.279 0-0.555-0.016-0.826-0.046-0.061 0.009-0.171 0.013-0.282 0.013-0.898 0-1.742-0.231-2.476-0.637-0.683-0.381-1.529-0.614-2.429-0.614-0.127 0-0.253 0.005-0.377 0.014-0.556-0.669-1.277-1.193-2.097-1.524-0.876-0.397-1.59-0.914-2.184-1.546l-0.003-73.117zM600.32 598.733v-98.918c-0.052-0.472-0.081-1.020-0.081-1.575 0-1.631 0.254-3.203 0.725-4.678 1.357-1.376 3.316-2.313 5.493-2.349 3.019 0.339 5.724 1.44 7.989 3.104 3.213 1.541 5.904 3.838 7.898 6.662l0.043 97.754h26.317v-128.41h-26.419v14.131c-2.26-2.614-4.857-4.852-7.743-6.675-2.805-1.722-5.569-3.565-8.437-5.613l-7.066-2.765c-2.096-0.903-4.532-1.461-7.088-1.535-0.21-0.008-0.423-0.012-0.637-0.012-5.436 0-10.254 2.647-13.234 6.723-1.377 1.962-2.519 4.163-3.352 6.51-1.011 2.954-1.561 6.137-1.561 9.449 0 0.346 0.006 0.69 0.018 1.033l-0.001 107.47h26.982zM672.819 336.384h-44.442v-22.118c-0.105-0.755-0.165-1.627-0.165-2.514 0-3.606 0.994-6.979 2.723-9.861 1.513-1.857 3.889-3.091 6.554-3.091 0.471 0 0.933 0.039 1.382 0.113 0.021-0.008 0.103-0.009 0.185-0.009 1.452 0 2.85 0.225 4.164 0.643 1.145 0.37 2.179 0.787 3.176 1.267 1.086 1.293 1.881 3.071 1.999 5.032 0.001 2.276 0.308 5.143 0.308 8.318v5.632h23.962v-5.53c0.033-0.627 0.053-1.362 0.053-2.101 0-9.654-3.255-18.549-8.727-25.645-6.173-5.324-14.383-8.628-23.365-8.628-1.049 0-2.088 0.045-3.115 0.133-0.136-0.017-0.454-0.022-0.772-0.022-9.251 0-17.623 3.763-23.669 9.841-5.381 6.77-8.633 15.44-8.633 24.87 0 0.545 0.011 1.088 0.032 1.628l-0.002 52.146c-0.002 0.142-0.004 0.311-0.004 0.479 0 9.209 3.805 17.529 9.928 23.475 6.18 6.097 14.663 9.858 24.024 9.858 0.413 0 0.824-0.007 1.234-0.022 0.581 0.046 1.328 0.071 2.081 0.071 8.635 0 16.501-3.294 22.41-8.694 2.653-3.024 4.835-6.588 6.344-10.488 1.455-4.205 2.248-8.774 2.248-13.528 0-0.405-0.006-0.809-0.017-1.211l0.001-30.046zM631.091 377.344c-1.288-1.327-2.099-3.124-2.15-5.11-0.228-1.818-0.359-3.909-0.359-6.031 0-0.043 0-0.086 0-0.129v-11.053h20.48v11.469c0.001 0.085 0.002 0.185 0.002 0.285 0 3.918-0.908 7.625-2.524 10.921-0.784 0.271-1.818 0.687-2.883 1.033-1.391 0.44-2.79 0.666-4.241 0.666-0.082 0-0.165-0.001-0.247-0.002-0.178 0.008-0.402 0.013-0.626 0.013-1.596 0-3.139-0.229-4.597-0.656-1.123-0.342-2.176-0.759-3.182-1.255z" />
<glyph unicode="&#xe914;" glyph-name="icon_heart" d="M512 591.974c-69.376 161.638-266.24 123.955-267.469-63.642-0.717-103.014 93.696-141.517 156.57-182.733 47.132-28.786 84.901-68.671 110.363-116.143 28.001 47.054 65.312 87.051 110.125 116.592 62.956 44.505 158.546 80.498 157.829 183.513-1.178 187.955-201.472 217.6-267.418 62.413z" />
<glyph unicode="&#xe915;" glyph-name="icon_star" d="M512 295.066l-163.584-86.016 31.232 182.17-132.352 129.024 182.886 26.573 81.818 165.734 81.818-165.734 182.886-26.573-132.352-129.024 31.232-182.17-163.584 86.016z" />
<glyph unicode="&#xe916;" glyph-name="icon_calendar" d="M765.85-7.168h-507.699c-98.969 0-179.2 80.231-179.2 179.2v484.813c0 98.969 80.231 179.2 179.2 179.2h507.75c98.969 0 179.2-80.231 179.2-179.2v-484.813c0 0 0 0 0 0 0-98.969-80.231-179.2-179.2-179.2-0.018 0-0.036 0-0.054 0zM258.15 784.845c-70.692 0-128-57.308-128-128v-484.813c0-70.692 57.308-128 128-128h507.75c70.692 0 128 57.308 128 128v484.813c0 70.692-57.308 128-128 128h-507.75zM300.902 724.378c-14.138 0-25.6 11.462-25.6 25.6v120.986c0 14.138 11.462 25.6 25.6 25.6s25.6-11.462 25.6-25.6v-120.986c0-14.138-11.462-25.6-25.6-25.6zM723.098 724.378c-14.138 0-25.6 11.462-25.6 25.6v120.986c0 14.138 11.462 25.6 25.6 25.6s25.6-11.462 25.6-25.6v-120.986c0-14.138-11.462-25.6-25.6-25.6zM591.396 533.501c8.865-15.354 3.604-34.988-11.75-43.853s-34.988-3.604-43.853 11.75c-8.865 15.354-3.604 34.988 11.75 43.853s34.988 3.604 43.853-11.75zM694.655 533.526c8.865-15.354 3.604-34.988-11.75-43.853s-34.988-3.604-43.853 11.75c-8.865 15.354-3.604 34.988 11.75 43.853s34.988 3.604 43.853-11.75zM797.965 533.501c8.865-15.354 3.604-34.988-11.75-43.853s-34.988-3.604-43.853 11.75c-8.865 15.354-3.604 34.988 11.75 43.853s34.988 3.604 43.853-11.75zM281.638 413.991c8.865-15.354 3.604-34.988-11.75-43.853s-34.988-3.604-43.853 11.75c-8.865 15.354-3.604 34.988 11.75 43.853s34.988 3.604 43.853-11.75zM384.897 413.966c8.865-15.354 3.604-34.988-11.75-43.853s-34.988-3.604-43.853 11.75c-8.865 15.354-3.604 34.988 11.75 43.853s34.988 3.604 43.853-11.75zM488.207 413.991c8.865-15.354 3.604-34.988-11.75-43.853s-34.988-3.604-43.853 11.75c-8.865 15.354-3.604 34.988 11.75 43.853s34.988 3.604 43.853-11.75zM488.182 533.552c8.865-15.354 3.604-34.988-11.75-43.853s-34.988-3.604-43.853 11.75c-8.865 15.354-3.604 34.988 11.75 43.853s34.988 3.604 43.853-11.75zM591.422 413.94c8.865-15.354 3.604-34.988-11.75-43.853s-34.988-3.604-43.853 11.75c-8.865 15.354-3.604 34.988 11.75 43.853s34.988 3.604 43.853-11.75zM694.681 413.966c8.865-15.354 3.604-34.988-11.75-43.853s-34.988-3.604-43.853 11.75c-8.865 15.354-3.604 34.988 11.75 43.853s34.988 3.604 43.853-11.75zM797.939 413.94c8.865-15.354 3.604-34.988-11.75-43.853s-34.988-3.604-43.853 11.75c-8.865 15.354-3.604 34.988 11.75 43.853s34.988 3.604 43.853-11.75zM281.664 294.431c8.865-15.354 3.604-34.988-11.75-43.853s-34.988-3.604-43.853 11.75c-8.865 15.354-3.604 34.988 11.75 43.853s34.988 3.604 43.853-11.75zM384.923 294.456c8.865-15.354 3.604-34.988-11.75-43.853s-34.988-3.604-43.853 11.75c-8.865 15.354-3.604 34.988 11.75 43.853s34.988 3.604 43.853-11.75zM488.182 294.431c8.865-15.354 3.604-34.988-11.75-43.853s-34.988-3.604-43.853 11.75c-8.865 15.354-3.604 34.988 11.75 43.853s34.988 3.604 43.853-11.75zM591.447 294.431c8.865-15.354 3.604-34.988-11.75-43.853s-34.988-3.604-43.853 11.75c-8.865 15.354-3.604 34.988 11.75 43.853s34.988 3.604 43.853-11.75zM694.706 294.405c8.865-15.354 3.604-34.988-11.75-43.853s-34.988-3.604-43.853 11.75c-8.865 15.354-3.604 34.988 11.75 43.853s34.988 3.604 43.853-11.75zM797.965 294.431c8.865-15.354 3.604-34.988-11.75-43.853s-34.988-3.604-43.853 11.75c-8.865 15.354-3.604 34.988 11.75 43.853s34.988 3.604 43.853-11.75zM281.613 174.914c8.865-15.354 3.604-34.988-11.75-43.853s-34.988-3.604-43.853 11.75c-8.865 15.354-3.604 34.988 11.75 43.853s34.988 3.604 43.853-11.75zM384.923 174.94c8.865-15.354 3.604-34.988-11.75-43.853s-34.988-3.604-43.853 11.75c-8.865 15.354-3.604 34.988 11.75 43.853s34.988 3.604 43.853-11.75zM488.182 174.914c8.865-15.354 3.604-34.988-11.75-43.853s-34.988-3.604-43.853 11.75c-8.865 15.354-3.604 34.988 11.75 43.853s34.988 3.604 43.853-11.75zM591.396 174.914c8.865-15.354 3.604-34.988-11.75-43.853s-34.988-3.604-43.853 11.75c-8.865 15.354-3.604 34.988 11.75 43.853s34.988 3.604 43.853-11.75zM919.45 631.245h-814.899c-14.138 0-25.6 11.462-25.6 25.6s11.462 25.6 25.6 25.6h814.899c14.138 0 25.6-11.462 25.6-25.6s-11.462-25.6-25.6-25.6z" />
</font>
</defs>
</svg>
